<svg xmlns="http://www.w3.org/2000/svg" enable-background="new 0 0 512 512" viewBox="0 0 512 512"><path d="M255.6 267.8c-2-2.1-5.4-2.2-7.5-.2-14.9 14.2-38.3 14.2-53.2 0-2.1-2-5.5-2-7.5.2-2 2.1-2 5.5.2 7.5 19 18.1 48.8 18.1 67.9 0C257.5 273.3 257.6 269.9 255.6 267.8zM252.3 208.7c2.7 1.1 5.8-.2 7-2.9 1.6-3.9 7.2-4 8.8 0 1.1 2.7 4.3 4 7 2.9 2.7-1.1 4-4.3 2.9-7-5.3-12.7-23.3-12.6-28.5 0C248.3 204.4 249.6 207.5 252.3 208.7zM190.9 208.7c2.7-1.1 4-4.3 2.9-7-5.2-12.6-23.3-12.7-28.5 0-1.1 2.7.2 5.8 2.9 7 2.7 1.1 5.8-.2 7-2.9 1.6-3.9 7.2-3.9 8.8 0C185.1 208.5 188.2 209.8 190.9 208.7z"/><path d="M492.5,333.6h-1.2v-42.4c0-2.9-2.4-5.3-5.3-5.3s-5.3,2.4-5.3,5.3v42.4h-53.9v-42.4c0-2.9-2.4-5.3-5.3-5.3
			s-5.3,2.4-5.3,5.3v42.4H415c-10.6,0-19.3,8.7-19.3,19.3v8.5c-25.3-22.8-58.6-36.8-95.3-36.8h-6.6l-12.5-12.8
			c25.4-17.6,40.7-44.3,44.4-72.8l1.3-9.9c11.7-2.2,20.7-12.6,20.7-25c0-9.3-5.1-17.4-12.6-21.8c1.6-2.4,2.5-5.3,2.5-8.4v-13.1h0.6
			c10.2,0,18.5-8.3,18.5-18.5c0-9.1-6.6-16.6-15.3-18.2c-2.2-47.8-35.1-87.5-79.5-100.1l1.2-6.8C264.6,8.4,257.6,0,248.3,0h-53.4
			c-9.3,0-16.4,8.4-14.8,17.6l1.2,6.7c-44.4,12.5-77.3,52.3-79.5,100.1c-8.7,1.5-15.3,9.1-15.3,18.2c0,10.2,8.3,18.5,18.5,18.5h0.6
			v13.1c0,3.1,0.9,6,2.5,8.4c-7.5,4.4-12.6,12.5-12.6,21.8c0,12.4,8.9,22.7,20.7,25l1.3,9.9c3.9,30.3,20.7,56.2,44.3,72.7
			l-12.6,12.9h-6.6c-78.6,0-142.5,63.9-142.5,142.5v39c0,2.9,2.4,5.3,5.3,5.3c460.6,0,437.3,2.8,437.3-5.3v-15.9
			c10-11.2,16.2-25.9,16.2-42.1v-20.1h5.5c8.5,0,16-5.4,18.3-13.2c2.6-8.6,8.9-15.8,16.5-18.6c7.4-2.8,12.4-10.3,12.4-18.6v-24.8
			C511.8,342.3,503.1,333.6,492.5,333.6z M302.7,349l17.1,48.4l-25.1-14c-1.7-0.9-3.7-0.9-5.4,0.1l-49.5,29.8
			c15.5-25.2,38.8-45.4,39.7-87.8L302.7,349z M330.8,124.1h-86.4L260,34.9C299.3,46.4,328.5,81.7,330.8,124.1z M194.9,10.7h53.4
			c2.7,0,4.7,2.4,4.3,5.1c0,0,0,0,0,0l-19,108.4h-24l-19-108.4C190.2,13.1,192.2,10.7,194.9,10.7z M183.1,34.9l15.6,89.2h-86.4
			C114.6,81.7,143.9,46.4,183.1,34.9z M105,150.4c-4.3,0-7.8-3.5-7.8-7.8s3.5-7.8,7.8-7.8c73.1,0,149,0,233.1,0
			c4.3,0,7.8,3.5,7.8,7.8s-3.5,7.8-7.8,7.8H105z M317.1,161.1h9.7v13.1c0,2.6-2.1,4.7-4.7,4.7s-4.7-2.1-4.7-4.7
			C317.3,168.2,317.6,166.3,317.1,161.1z M125.8,174.1c0,2.6-2.1,4.7-4.7,4.7c-2.6,0-4.7-2.1-4.7-4.7v-13.1h9.7
			C125.6,165.3,125.9,164.4,125.8,174.1z M128.2,237.8l-1.8-14.1c-0.3-2.7-2.6-4.6-5.3-4.6c-8.2,0-14.8-6.6-14.8-14.7
			c0-8.3,6.5-14.8,14.8-14.8c0,0,0,0,0,0c8.5,0,15.3-6.9,15.3-15.4c0.1-9.2-0.3-8.9,0.3-13.1h169.8c0.4,3.6,0.2,4.2,0.2,13.1
			c0,8.4,6.8,15.3,15.2,15.4c9.2,0.3,14.9,7.3,14.9,14.8c0,8.1-6.6,14.7-14.7,14.7c-2.7,0-4.9,2-5.3,4.6l-1.8,14.1
			c-6,46.7-45.7,82.2-93.4,82.2C174.3,320,134.2,284.6,128.2,237.8z M163.5,325.5c0.9,42.2,24,62.3,39.7,87.8l-49.5-29.8
			c-1.6-1-3.7-1-5.4-0.1l-25,14l17.1-48.4L163.5,325.5z M151.2,500.9H75.9v-21.7l35.9,12.3c1.1,0.4,2.3,0.4,3.4,0l35.9-12.3V500.9z
			 M151.2,468l-37.6,12.9L75.9,468V460c0-2.8,2.3-5,5-5h65.3c2.8,0,5,2.3,5,5L151.2,468L151.2,468z M216.2,500.9h-54.4
			c0-1.5,0-43.3,0-40.9c0-8.6-7-15.7-15.7-15.7H80.9c-8.6,0-15.7,7-15.7,15.7c0,13,0,41.7,0,40.9H10.9v-33.7
			c0-71.4,57-129.6,127.8-131.7l-6.8,6.9c-0.5,0.6-1,1.2-1.2,2l-22.2,62.8c-1.6,4.6,3.4,8.8,7.6,6.4l34.7-19.3l65.4,39.4
			L216.2,500.9L216.2,500.9z M174.2,319.2c14.3,7.3,30.4,11.4,47.3,11.4c16.6,0,32.8-4,47.3-11.3c2,42.8-22.3,62.6-47.3,101.9
			C196.7,382.1,172.2,362,174.2,319.2z M367.2,500.9h-75.3v-21.7l35.9,12.3c1.1,0.4,2.3,0.4,3.4,0l35.9-12.3V500.9z M367.2,468
			l-37.6,12.9L291.9,468V460c0-2.8,2.3-5,5-5h65.3c2.8,0,5,2.3,5,5L367.2,468L367.2,468z M432.2,486.1c-9.5,9.1-22.3,14.8-36.5,14.8
			h-17.9c0-1.5,0-43.3,0-40.9c0-8.6-7-15.7-15.7-15.7h-65.3c-8.6,0-15.7,7-15.7,15.7c0,13,0,41.7,0,40.9h-54.4v-67.3l65.4-39.4
			l34.7,19.3c4.3,2.4,9.2-1.8,7.6-6.4l-22.1-62.8c-0.3-0.7-0.7-1.4-1.2-2l-6.8-6.9c35.8,1.1,68.1,16.5,91.3,40.8v1.4
			c0,8.4,5,15.9,12.4,18.6c1.7,0.6,3.3,1.5,4.9,2.5c12.1,19.9,19.2,43.3,19.2,68.3L432.2,486.1L432.2,486.1L432.2,486.1z
			 M448.4,448.2c0,8.4-2,16.3-5.5,23.3c-0.2-2.5,1.1-20.7-5.8-44.3c1.9,0.6,3.8,0.9,5.8,0.9h5.5V448.2z M501.1,377.7
			c0,4-2.2,7.4-5.5,8.7c-10.7,4-19.5,13.7-23,25.5c-1,3.3-4.3,5.6-8.1,5.6h-21.6c-3.8,0-7.1-2.3-8.1-5.7
			c-3.5-11.8-12.3-21.6-23-25.5c-3.3-1.2-5.5-4.7-5.5-8.7v-24.8c0-4.8,3.9-8.6,8.6-8.6h77.5c4.8,0,8.6,3.9,8.6,8.6L501.1,377.7
			L501.1,377.7z"/><path d="M431.2 365.4C431.2 365.4 431.2 365.4 431.2 365.4l45-.2c2.9 0 5.3-2.4 5.3-5.3s-2.4-5.3-5.3-5.3c0 0 0 0 0 0l-45 .2c-2.9 0-5.3 2.4-5.3 5.3C425.9 363 428.3 365.4 431.2 365.4zM476.2 372.8C476.2 372.8 476.2 372.8 476.2 372.8l-45 .2c-2.9 0-5.3 2.4-5.3 5.3s2.4 5.3 5.3 5.3c0 0 0 0 0 0l45-.2c2.9 0 5.3-2.4 5.3-5.3C481.5 375.1 479.1 372.8 476.2 372.8z"/></svg>